# xmcd
#
# Track frame offsets: 
#        150
#        20676
#        41213
#        60116
#        72120
#        96744
#        109038
#        123990
#        137869
#        162863
#        180807
#        193405
#        210934
#        231748
#        246604
#        266794
#        280699
#        295177
#        312736
#        327108
#
# Disc length: 4545 seconds
#
# Revision: 1
# Processed by: cddbd v1.5.2PL0 Copyright (c) Steve Scherf et al.
# Submitted via: ExactAudioCopy v1.1
#
DISCID=3811bf14
DTITLE=Jose Feliciano - No Jive The Very Best Of Jose Feliciano 1964-7
DTITLE=5 [CD 02]
DYEAR=2013
DGENRE=Pop
TTITLE0=Compartments
TTITLE1=Norwegian Wood
TTITLE2=California Dreamin'
TTITLE3=Take Me To The Pilot
TTITLE4=Little Red Rooster
TTITLE5=Spoonful
TTITLE6=My World Is Empty Without You
TTITLE7=Hard Times In El Barrio
TTITLE8=I'm Leavin'
TTITLE9=Mellow Feeling
TTITLE10=Old Turkey Buzzard (Theme from Mackenna s Gold)
TTITLE11=Marley Purt Drive
TTITLE12=I Like What You Give
TTITLE13=Virgo
TTITLE14=River Song
TTITLE15=Work Song
TTITLE16=You're No Good
TTITLE17=Not That Kind Of Guy (Hot Burrito #1)
TTITLE18=Manha De Carnaval
TTITLE19=Feliz Navidad
EXTD=
EXTT0=
EXTT1=
EXTT2=
EXTT3=
EXTT4=
EXTT5=
EXTT6=
EXTT7=
EXTT8=
EXTT9=
EXTT10=
EXTT11=
EXTT12=
EXTT13=
EXTT14=
EXTT15=
EXTT16=
EXTT17=
EXTT18=
EXTT19=
PLAYORDER=
